<svg xmlns="http://www.w3.org/2000/svg" viewBox="0 0 64 62" fill="none"><style>.dk{fill:#000D30}@media(prefers-color-scheme:dark){.dk{fill:#f5f6f0}}</style><path fill="#15A4C9" d="M52.091 14.586c5.118 5.027 8.091 10.945 8.091 16.389s-2.973 11.348-8.09 16.389h-1.757c-.388-3.83-.94-10.346-.94-16.39 0-6.042.58-12.531.981-16.388zm1.494-3.83h-6.584a179 179 0 0 0-1.383 20.219c.096 6.76.558 13.509 1.383 20.218h6.653C59.187 46.18 64 38.981 64 30.975S59.104 15.77 53.585 10.757"/><path fill="#95C11F" d="M46.547 52.502a26.5 26.5 0 0 1-11.454 4.844 26.4 26.4 0 0 1-12.39-.927 26.54 26.54 0 0 1-10.616-6.496 26.8 26.8 0 0 1-6.522-10.645 26.9 26.9 0 0 1-1.002-12.466A26.85 26.85 0 0 1 9.3 15.248a26.6 26.6 0 0 1 9.44-8.13 26.4 26.4 0 0 1 12.08-2.92 26.33 26.33 0 0 1 15.727 5.235h6.32A30.7 30.7 0 0 0 37.134.672a30.57 30.57 0 0 0-17.91 1.589 30.8 30.8 0 0 0-13.97 11.396A31.1 31.1 0 0 0 0 30.967c0 6.169 1.83 12.197 5.255 17.311a30.8 30.8 0 0 0 13.969 11.397 30.57 30.57 0 0 0 17.91 1.588 30.7 30.7 0 0 0 15.733-8.761z"/><path class="dk" d="M24.735 39.009h9.682a4.57 4.57 0 0 0 1.808 2.693 4.514 4.514 0 0 0 5.996-.7 4.6 4.6 0 0 0 1.149-3.038c0-1.12-.41-2.201-1.15-3.038a4.514 4.514 0 0 0-5.995-.7 4.57 4.57 0 0 0-1.808 2.694h-8.811l-7.358-7.408H4.292c0 .46-.07.933-.07 1.393v.682h13.085zm14.094-3.523c.487 0 .963.145 1.368.418.404.272.72.659.906 1.112a2.49 2.49 0 0 1-.533 2.7 2.45 2.45 0 0 1-2.683.537 2.47 2.47 0 0 1-1.105-.912 2.5 2.5 0 0 1-.415-1.377c.014-.647.28-1.264.74-1.716a2.45 2.45 0 0 1 1.722-.706z"/><path class="dk" d="M29.202 23.692a4.54 4.54 0 0 0-2.675 1.82 4.59 4.59 0 0 0 .695 6.036 4.52 4.52 0 0 0 3.018 1.157 4.52 4.52 0 0 0 3.017-1.157 4.59 4.59 0 0 0 .695-6.035 4.54 4.54 0 0 0-2.675-1.821v-8.355l-4.523-4.177V4.546c-.705.111-1.383.236-2.075.403v7.13l4.523 4.247zm3.5 4.441c0 .49-.145.97-.415 1.377s-.655.726-1.105.913a2.45 2.45 0 0 1-2.683-.537 2.48 2.48 0 0 1-.534-2.701 2.47 2.47 0 0 1 .907-1.112A2.45 2.45 0 0 1 32 26.4a2.48 2.48 0 0 1 .702 1.789zM11.968 49.841l3.734-3.745a4.47 4.47 0 0 0 2.351.682c.898 0 1.775-.268 2.521-.77a4.56 4.56 0 0 0 1.67-2.05 4.6 4.6 0 0 0-.982-4.977 4.51 4.51 0 0 0-4.944-.99 4.54 4.54 0 0 0-2.037 1.682 4.6 4.6 0 0 0-.764 2.538c.012.84.257 1.66.705 2.367l-3.651 3.662a18 18 0 0 0 1.397 1.601m6.086-10.109c.487 0 .963.146 1.367.418.405.272.72.66.907 1.112a2.49 2.49 0 0 1-.534 2.701 2.46 2.46 0 0 1-2.683.538 2.47 2.47 0 0 1-1.105-.913 2.49 2.49 0 0 1 .307-3.13 2.45 2.45 0 0 1 1.74-.726M34.735 17.51a4.6 4.6 0 0 0 .683 2.439 4.55 4.55 0 0 0 1.87 1.697 4.51 4.51 0 0 0 4.807-.533 4.57 4.57 0 0 0 1.458-2.065 4.6 4.6 0 0 0-1.08-4.745 4.53 4.53 0 0 0-2.206-1.22V5.994a26 26 0 0 0-2.074-.71v7.797a4.54 4.54 0 0 0-2.488 1.614 4.6 4.6 0 0 0-.97 2.814m6.985 0c.002.492-.14.973-.41 1.383s-.653.73-1.104.918a2.45 2.45 0 0 1-2.69-.534 2.48 2.48 0 0 1-.53-2.708c.188-.453.506-.84.913-1.111a2.45 2.45 0 0 1 1.373-.412c.649 0 1.271.26 1.73.722s.718 1.089.718 1.742m-29.724 9.692 5.228-5.263a4.57 4.57 0 0 0 4.874-.481c.82-.64 1.4-1.54 1.647-2.555a4.65 4.65 0 0 0-.288-3.031 4.6 4.6 0 0 0-2.1-2.194 4.57 4.57 0 0 0-2.998-.402 4.6 4.6 0 0 0-2.597 1.563 4.64 4.64 0 0 0-.143 5.75l-4.481 4.497h-6.28q-.238 1.035-.373 2.089zm7.233-11.863c.487 0 .963.145 1.368.418.405.272.72.659.907 1.112a2.49 2.49 0 0 1-.534 2.7 2.46 2.46 0 0 1-2.683.538 2.47 2.47 0 0 1-1.105-.913 2.49 2.49 0 0 1 .306-3.13 2.45 2.45 0 0 1 1.741-.725M30.82 57.751h.997v-6.057a4.54 4.54 0 0 0 2.675-1.821 4.59 4.59 0 0 0-.695-6.035 4.52 4.52 0 0 0-3.018-1.157 4.52 4.52 0 0 0-3.017 1.157 4.59 4.59 0 0 0-.695 6.035 4.54 4.54 0 0 0 2.675 1.82v6.002c.36.014.705.056 1.079.056m-2.447-10.485a2.49 2.49 0 0 1 1.52-2.29 2.45 2.45 0 0 1 2.683.537 2.48 2.48 0 0 1 .533 2.702c-.186.452-.502.84-.907 1.112a2.45 2.45 0 0 1-3.108-.308 2.48 2.48 0 0 1-.721-1.753"/></svg>